<svg width="64" height="64" viewBox="0 0 64 64" fill="none" xmlns="http://www.w3.org/2000/svg">
<path d="M32 3C14.3555 3 0 14.4766 0 28.5859C0 37.4609 5.55859 45.5039 14.9062 50.2227C14.7344 52.5703 14.0977 56.4805 11.9023 60.1406C11.6953 60.4844 11.7148 60.918 11.9492 61.2383C12.1367 61.5039 12.4414 61.6562 12.7617 61.6562C12.832 61.6562 12.9063 61.6484 12.9766 61.6328C20.5469 59.9492 24.0977 55.6328 25.3789 53.6172C27.5664 53.9844 29.7891 54.1719 32 54.1719C49.6484 54.1719 64 42.6953 64 28.5898C64 14.4805 49.6445 3 32 3ZM32 5C48.543 5 62 15.582 62 28.5859C62 41.5898 48.543 52.1719 32 52.1719C29.6797 52.1719 27.3437 51.957 25.0586 51.5312C24.6328 51.4492 24.2031 51.6523 23.9961 52.0312C23.3242 53.2578 20.8008 57.0898 14.7148 59.0859C16.4258 55.3516 16.8516 51.6953 16.9414 49.668C16.9609 49.2695 16.7383 48.8945 16.3789 48.7188C7.375 44.3906 2 36.8633 2 28.5898C2 15.582 15.457 5 32 5ZM32 8.82812C18.2383 8.82812 7.04297 17.8008 7.04297 28.8281C7.04297 30.1719 7.21094 31.5156 7.53906 32.8242C7.65234 33.2773 8.0625 33.5781 8.50781 33.5781C8.58984 33.5781 8.67578 33.5703 8.75781 33.5469C9.29297 33.4141 9.61719 32.8711 9.48047 32.3359C9.19141 31.1875 9.04297 30.0078 9.04297 28.8281C9.04297 18.9023 19.3398 10.8281 32 10.8281C36.0664 10.8281 40.0625 11.6719 43.5547 13.2773C44.0547 13.5039 44.6484 13.2852 44.8789 12.7812C45.1094 12.2812 44.8906 11.6875 44.3906 11.457C40.6367 9.73828 36.3516 8.82812 32 8.82812ZM48.0547 13.8477C47.8008 13.8867 47.5664 14.0234 47.4023 14.25C47.0781 14.6953 47.1758 15.3203 47.6211 15.6445C48.5156 16.3008 49.3516 17.0117 50.1016 17.7656C50.2969 17.9648 50.5547 18.0625 50.8125 18.0625C51.0664 18.0625 51.3203 17.9648 51.5156 17.7695C51.9102 17.3789 51.9102 16.7461 51.5195 16.3555C50.6953 15.5273 49.7812 14.7422 48.7969 14.0273C48.5742 13.8633 48.3086 13.8086 48.0547 13.8477ZM34 16.8281C32.8945 16.8281 32 17.7227 32 18.8281C32 19.9336 32.8945 20.8281 34 20.8281C35.1055 20.8281 36 19.9336 36 18.8281C36 17.7227 35.1055 16.8281 34 16.8281ZM53.4727 19.6406C53.3477 19.6602 53.2187 19.7031 53.1016 19.7773C52.6289 20.0625 52.4766 20.6758 52.7656 21.1484C54.2188 23.5586 54.957 26.1406 54.957 28.8281C54.957 37.0234 47.8945 44.1875 37.7891 46.25C37.25 46.3594 36.8984 46.8906 37.0117 47.4297C37.1055 47.9023 37.5234 48.2305 37.9883 48.2305C38.0547 48.2305 38.1211 48.2227 38.1875 48.207C49.2383 45.9531 56.957 37.9844 56.957 28.8281C56.957 25.7734 56.1211 22.8398 54.4727 20.1133C54.2617 19.7578 53.8594 19.5859 53.4727 19.6406ZM31.0391 22.8281C30.5586 22.8281 30.0781 23.2266 30.0781 23.8281C30.0781 24.4297 30.4375 24.8281 31.0391 24.8281H31.8477L30.1328 36.8281H28.0391C27.5586 36.8281 27.0781 37.2266 27.0781 37.8281C27.0781 38.4297 27.4375 38.8281 28.0391 38.8281H34C34.6016 38.8281 34.9609 38.4297 34.9609 37.8281C34.9609 37.2266 34.6016 36.8281 34 36.8281H32.1523L33.8672 24.8281H35C35.6016 24.8281 35.9609 24.4297 35.9609 23.8281C35.9609 23.2266 35.6016 22.8281 35 22.8281H31.0391ZM12.9453 35.6406C12.6953 35.5938 12.4219 35.6484 12.1992 35.8047L10.5586 36.9492C10.1055 37.2656 9.99609 37.8906 10.3125 38.3438C10.5078 38.6211 10.8164 38.7695 11.1328 38.7695C11.332 38.7695 11.5273 38.7109 11.7031 38.5898L13.3438 37.4414C13.7969 37.125 13.9062 36.5039 13.5898 36.0508C13.4336 35.8242 13.1953 35.6836 12.9453 35.6406ZM16.3867 39.6719C16.1289 39.6953 15.8828 39.8125 15.7031 40.0273L14.418 41.5586C14.0625 41.9805 14.1172 42.6094 14.543 42.9648C14.7266 43.1211 14.957 43.1992 15.1836 43.1992C15.4687 43.1992 15.75 43.0781 15.9492 42.8438L17.2344 41.3125C17.5898 40.8867 17.5352 40.2578 17.1133 39.9023C16.9023 39.7266 16.6406 39.6484 16.3867 39.6719ZM21.1289 42.6211C20.7383 42.6055 20.3594 42.8164 20.1875 43.1914L19.3398 45.0039C19.1055 45.5039 19.3203 46.1016 19.8203 46.3359C19.957 46.3984 20.1016 46.4297 20.2461 46.4297C20.6211 46.4297 20.9805 46.2148 21.1523 45.8516L21.9961 44.043C22.2305 43.543 22.0156 42.9453 21.5156 42.7148C21.3906 42.6562 21.2578 42.625 21.1289 42.6211ZM26.4922 44.2852C25.9453 44.1914 25.4297 44.5547 25.332 45.0977L24.9844 47.0664C24.8867 47.6094 25.2539 48.1289 25.7969 48.2227C25.8555 48.2344 25.9141 48.2383 25.9688 48.2383C26.4453 48.2383 26.8672 47.8984 26.9531 47.4141L27.3047 45.4453C27.4023 44.9023 27.0352 44.3828 26.4922 44.2852ZM31.7109 44.5156C31.1602 44.5664 30.7539 45.0508 30.8008 45.5977L30.9727 47.5938C31.0195 48.1133 31.4531 48.5078 31.9688 48.5078C31.9961 48.5078 32.0273 48.5078 32.0547 48.5039C32.6055 48.457 33.0117 47.9727 32.9648 47.4219L32.793 45.4258C32.7461 44.8789 32.25 44.4648 31.7109 44.5156Z" fill="black"/>
</svg>
