<svg width="64" height="64" viewBox="0 0 64 64" fill="none" xmlns="http://www.w3.org/2000/svg">
<path d="M19.2001 22.976C6.84808 28.48 5.88808 29.376 9.53608 32C11.2641 33.216 11.5201 33.728 11.5201 36.48C11.5201 38.208 11.2641 39.808 10.8801 40C9.47208 40.896 11.1361 47.36 12.8001 47.36C14.4641 47.36 16.1281 40.896 14.7201 40C14.4001 39.808 14.0801 38.592 14.0801 37.376C14.0801 35.328 14.1441 35.264 15.3601 35.968C16.1281 36.48 16.6401 37.504 16.6401 38.464C16.6401 41.344 19.2001 41.92 32.0001 41.92C44.7361 41.92 47.3601 41.344 47.3601 38.464C47.4241 37.12 48.2561 36.224 51.9041 33.728C58.4321 29.184 58.3681 29.056 44.8001 22.976C38.6561 20.224 32.8961 17.984 32.0001 17.984C31.1041 17.984 25.3441 20.224 19.2001 22.976ZM42.6881 25.792L51.6481 29.824L49.6641 31.232C47.7441 32.64 47.6801 32.64 47.4881 31.424C47.1041 29.056 43.9041 28.48 32.0001 28.48C20.0961 28.48 16.8961 29.056 16.5121 31.424C16.3201 32.64 16.2561 32.64 14.3361 31.232L12.2881 29.824L22.0161 25.472C27.3281 23.104 32.1281 21.312 32.7041 21.504C33.2801 21.632 37.7601 23.616 42.6881 25.792ZM42.5601 31.936C43.7761 32.256 44.5441 32.832 44.6721 33.664C44.8641 34.816 44.3521 34.88 32.0001 34.88C20.4161 34.88 19.2001 34.752 19.2001 33.792C19.2001 33.216 19.5201 32.512 19.9041 32.256C21.8881 31.04 37.7601 30.784 42.5601 31.936Z" fill="black"/>
<circle cx="32" cy="32" r="28.5" stroke="black" stroke-width="3"/>
</svg>
