<svg width="50" height="50" viewBox="0 0 50 50" fill="none" xmlns="http://www.w3.org/2000/svg">
<path d="M10.3125 7.1875C8.98438 8.51562 8.98438 41.4844 10.3125 42.8125C10.8594 43.3594 13.4375 43.75 16.5625 43.75C21.3281 43.75 21.875 43.5938 21.875 42.1875C21.875 40.8594 21.3281 40.625 18.125 40.625C16.0938 40.625 13.9844 40.2344 13.4375 39.6875C12.1094 38.3594 12.1094 11.6406 13.4375 10.3125C14.0625 9.6875 16.9531 9.375 21.25 9.375H28.125V14.0625V18.75H32.8125H37.5V23.4375C37.5 27.5781 37.6562 28.125 39.0625 28.125C40.4688 28.125 40.625 27.5781 40.625 22.0312V15.9375L35.7031 11.0938L30.7812 6.25H21.0156C14.4531 6.25 10.9375 6.5625 10.3125 7.1875Z" fill="black"/>
<path d="M25.3125 32.2656C25.1563 32.8125 25.0781 36.9531 25.1563 41.4844L25.3906 49.6094H37.5H49.6094V40.625V31.6406L37.6563 31.4062C28.2813 31.25 25.625 31.4062 25.3125 32.2656ZM35.8594 43.125C37.6563 44.4531 37.7344 44.4531 41.7969 41.0156C44.0625 39.0625 46.0938 37.5 46.4063 37.5C46.6406 37.5 46.875 39.6094 46.875 42.1875V46.875H37.5H28.125V42.1094V37.3438L31.0938 39.5312C32.6563 40.7031 34.8438 42.3438 35.8594 43.125Z" fill="black"/>
</svg>
