<svg width="50" height="50" viewBox="0 0 50 50" fill="none" xmlns="http://www.w3.org/2000/svg">
<path d="M11.9792 6.25C8.83357 6.25 6.25 8.83357 6.25 11.9792V38.0208C6.25 41.1664 8.83357 43.75 11.9792 43.75H38.0208C41.1664 43.75 43.75 41.1664 43.75 38.0208V11.9792C43.75 8.83357 41.1664 6.25 38.0208 6.25H11.9792ZM11.9792 9.375H38.0208C39.4773 9.375 40.625 10.5227 40.625 11.9792V38.0208C40.625 39.4773 39.4773 40.625 38.0208 40.625H31.25V30.2083H35.026C35.551 30.2083 35.995 29.8157 36.0596 29.2948L36.4502 26.1698C36.4877 25.874 36.3938 25.577 36.1959 25.352C35.999 25.128 35.7156 25 35.4167 25H31.25V21.3542C31.25 20.2052 32.1844 19.2708 33.3333 19.2708H35.4167C35.9917 19.2708 36.4583 18.8052 36.4583 18.2292V14.7135C36.4583 14.174 36.0467 13.7239 35.5103 13.6759C35.4488 13.6707 33.9791 13.5417 32.1187 13.5417C27.5281 13.5417 25 16.2669 25 21.2158V25H20.8333C20.2583 25 19.7917 25.4656 19.7917 26.0417V29.1667C19.7917 29.7427 20.2583 30.2083 20.8333 30.2083H25V40.625H11.9792C10.5227 40.625 9.375 39.4773 9.375 38.0208V11.9792C9.375 10.5227 10.5227 9.375 11.9792 9.375Z" fill="black"/>
</svg>
