<svg width="38" height="38" viewBox="0 0 38 38" fill="none" xmlns="http://www.w3.org/2000/svg">
<g clip-path="url(#clip0)">
<path d="M10.8849 0C4.89032 0 0 4.89032 0 10.8849V26.6151C0 32.6097 4.89032 37.5 10.8849 37.5H26.6151C32.6097 37.5 37.5 32.6097 37.5 26.6151V10.8849C37.5 4.89032 32.6097 0 26.6151 0H10.8849ZM10.8849 2.88462H26.6151C31.0491 2.88462 34.6154 6.44531 34.6154 10.8849V26.6151C34.6154 31.0491 31.0547 34.6154 26.6151 34.6154H10.8849C6.45095 34.6154 2.88462 31.0547 2.88462 26.6151V10.8849C2.88462 6.45095 6.44531 2.88462 10.8849 2.88462ZM29.5673 5.76923C28.3729 5.76923 27.4038 6.73828 27.4038 7.93269C27.4038 9.1271 28.3729 10.0962 29.5673 10.0962C30.7617 10.0962 31.7308 9.1271 31.7308 7.93269C31.7308 6.73828 30.7617 5.76923 29.5673 5.76923ZM18.75 8.65385C13.1892 8.65385 8.65385 13.1892 8.65385 18.75C8.65385 24.3108 13.1892 28.8462 18.75 28.8462C24.3108 28.8462 28.8462 24.3108 28.8462 18.75C28.8462 13.1892 24.3108 8.65385 18.75 8.65385ZM18.75 11.5385C22.7502 11.5385 25.9615 14.7499 25.9615 18.75C25.9615 22.7502 22.7502 25.9615 18.75 25.9615C14.7499 25.9615 11.5385 22.7502 11.5385 18.75C11.5385 14.7499 14.7499 11.5385 18.75 11.5385Z" fill="black"/>
</g>
<defs>
<clipPath id="clip0">
<rect width="37.5" height="37.5" fill="white"/>
</clipPath>
</defs>
</svg>
