<svg width="64" height="64" viewBox="0 0 64 64" fill="none" xmlns="http://www.w3.org/2000/svg">
<g clip-path="url(#clip0)">
<path d="M2 2C0.1 3.9 0 5.3 0 25.5C0 46.3 0.1 47 2 47C3.9 47 4 46.3 4 26.6C4 9.7 4.3 6 5.5 5C6.8 3.9 7 6 7 22.9C7 41.3 7.1 42 9 42C10.9 42 11 41.3 11 23V4H27.5C43.3 4 44 3.9 44 2C44 0.1 43.3 0 24 0C5.3 0 3.9 0.1 2 2Z" fill="black"/>
<path d="M27 12C25.2 13.8 25 15.3 25 27.5C25 40.3 25.1 41 27 41C28.9 41 29 40.3 29 28.7C29 20.5 29.4 16 30.2 15.2C31.9 13.5 57.1 13.5 58.8 15.2C59.6 16 60 21.1 60 31.7C60 46.3 60.1 47 62 47C63.9 47 64 46.3 64 30.5C64 8.69999 65.2 9.99999 44.5 9.99999C30.3 9.99999 28.8 10.2 27 12Z" fill="black"/>
<path d="M13 47.9C4.2 50.8 0 53.2 0 55.2C0 57.4 2.7 57.6 5.5 55.6C8.7 53.5 18.8 50 21.9 50C25.1 50 30 53.4 30 55.6C30 57.6 31.5 57.4 36 54.8L39.8 52.6L50.9 54.8C57 56.1 62.4 56.8 63 56.5C65.9 54.7 63.4 53.2 53.7 51.2C42.1 48.7 37.8 48.5 34.8 50.1C33.2 51 32.4 50.8 30.4 48.9C27.2 45.9 20.1 45.5 13 47.9Z" fill="black"/>
<path d="M0 62C0 64 0.700001 64 32 64C63.3 64 64 64 64 62C64 60 63.3 60 32 60C0.700001 60 0 60 0 62Z" fill="black"/>
<path d="M52 23.5H37C36.7239 23.5 36.5 23.7239 36.5 24C36.5 24.2761 36.7239 24.5 37 24.5H52C52.2761 24.5 52.5 24.2761 52.5 24C52.5 23.7239 52.2761 23.5 52 23.5Z" fill="#C4C4C4" stroke="black"/>
<path d="M50 29.5H39C38.7239 29.5 38.5 29.7239 38.5 30C38.5 30.2761 38.7239 30.5 39 30.5H50C50.2761 30.5 50.5 30.2761 50.5 30C50.5 29.7239 50.2761 29.5 50 29.5Z" fill="#C4C4C4" stroke="black"/>
</g>
<defs>
<clipPath id="clip0">
<rect width="64" height="64" fill="white"/>
</clipPath>
</defs>
</svg>
