<svg width="50" height="50" viewBox="0 0 50 50" fill="none" xmlns="http://www.w3.org/2000/svg">
<path d="M15.625 4.16675C9.29585 4.16675 4.16669 9.29591 4.16669 15.6251C4.16669 18.1897 5.01835 20.5465 6.44126 22.457C6.32876 23.2903 6.25002 24.1355 6.25002 25.0001C6.25002 35.3563 14.6438 43.7501 25 43.7501C25.8646 43.7501 26.7098 43.6713 27.5432 43.5588C29.4536 44.9818 31.8104 45.8334 34.375 45.8334C40.7042 45.8334 45.8334 40.7043 45.8334 34.3751C45.8334 31.8105 44.9817 29.4536 43.5588 27.5432C43.6713 26.7099 43.75 25.8647 43.75 25.0001C43.75 14.6438 35.3563 6.25008 25 6.25008C24.1354 6.25008 23.2902 6.32882 22.4569 6.44132C20.5465 5.01841 18.1896 4.16675 15.625 4.16675ZM15.625 8.33342C17.1938 8.33342 18.6978 8.83407 19.9707 9.78198L21.3298 10.7992L23.0143 10.5714C23.7935 10.4651 24.425 10.4167 25 10.4167C33.0417 10.4167 39.5834 16.9584 39.5834 25.0001C39.5834 25.5751 39.535 26.2045 39.4287 26.9858L39.2009 28.6703L40.2181 30.0294C41.166 31.3023 41.6667 32.8063 41.6667 34.3751C41.6667 38.3959 38.3959 41.6668 34.375 41.6668C32.8063 41.6668 31.3022 41.1661 30.0293 40.2182L28.6703 39.2009L26.9857 39.4288C26.2044 39.533 25.575 39.5834 25 39.5834C16.9584 39.5834 10.4167 33.0417 10.4167 25.0001C10.4167 24.4251 10.4651 23.7957 10.5713 23.0144L10.7992 21.3298L9.78192 19.9708C8.834 18.6979 8.33335 17.1938 8.33335 15.6251C8.33335 11.6042 11.6042 8.33342 15.625 8.33342ZM24.6867 14.5834C16.8534 14.5834 16.2761 19.1853 16.2761 20.3207C16.2761 22.5791 17.571 24.3332 19.7836 25.1832C22.1356 26.0874 24.9905 26.6295 26.6114 27.0712C29.1468 27.765 28.8249 29.162 28.8249 29.3661C28.8249 31.512 25.8859 32.0646 24.6338 31.9459C23.2171 31.8126 21.7819 32.2173 20.2881 29.1423C20.0214 28.5923 19.5312 27.3886 18.0583 27.3886C17.4208 27.3886 15.8285 27.8738 15.8285 29.3946C15.8285 32.3779 19.1594 35.4167 24.9553 35.4167C27.9844 35.4167 33.6344 34.3682 33.6385 28.9348C33.6385 24.2036 28.8664 23.3733 25.3581 22.4692C24.3977 22.2212 20.8171 21.8254 20.8171 19.9504C20.8171 19.3942 21.5956 18.0584 24.4019 18.0584C27.2915 18.0584 27.9207 19.4111 28.3041 20.1132C28.6249 20.6695 28.8885 21.0992 29.2114 21.3054C30.4927 22.1242 31.6614 21.4966 32.076 21.0653C32.4906 20.6341 32.6986 20.1584 32.6986 19.6168C32.6986 17.2605 29.9117 14.5834 24.6867 14.5834Z" fill="black"/>
</svg>
