<svg width="50" height="50" viewBox="0 0 50 50" fill="none" xmlns="http://www.w3.org/2000/svg">
<path d="M25 2.34375C12.5078 2.34375 2.34375 12.507 2.34375 25C2.34375 37.493 12.5078 47.6562 25 47.6562C37.4922 47.6562 47.6562 37.493 47.6562 25C47.6562 12.507 37.4922 2.34375 25 2.34375ZM25 3.90625C36.6312 3.90625 46.0938 13.3688 46.0938 25C46.0938 36.6312 36.6312 46.0938 25 46.0938C13.3688 46.0938 3.90625 36.6312 3.90625 25C3.90625 13.3688 13.3688 3.90625 25 3.90625ZM25 7.03125C15.0914 7.03125 7.03125 15.0922 7.03125 25C7.03125 25.4312 7.38047 25.7812 7.8125 25.7812C8.24453 25.7812 8.59375 25.4312 8.59375 25C8.59375 15.9531 15.9539 8.59375 25 8.59375C34.0461 8.59375 41.4062 15.9531 41.4062 25C41.4062 34.0469 34.0461 41.4062 25 41.4062C24.568 41.4062 24.2188 41.7562 24.2188 42.1875C24.2188 42.6188 24.568 42.9688 25 42.9688C34.9086 42.9688 42.9688 34.9078 42.9688 25C42.9688 15.0922 34.9086 7.03125 25 7.03125ZM32.3181 15.6448C32.0178 15.6155 31.6885 15.665 31.3553 15.7959C30.7803 16.0232 15.1526 22.612 14.5386 22.8729C13.8964 23.0917 13.1857 23.643 13.2904 24.4766C13.4092 25.4235 14.3984 25.8001 14.5218 25.8438L18.3304 27.1271C18.6499 28.1747 19.5257 31.0435 19.7296 31.6849C19.8312 32.0075 20.0888 32.8189 20.6833 33.0017C21.138 33.1666 21.5887 33.0095 21.8918 32.7744L24.1165 30.7465L27.8168 33.5831L27.98 33.6792C28.3168 33.8261 28.6179 33.8791 28.8757 33.8791C29.1507 33.8791 29.3768 33.8189 29.5471 33.7494C30.2573 33.458 30.542 32.7914 30.5725 32.7164L33.5159 17.7017C33.7316 16.7423 33.4117 16.2285 33.1055 15.9668C32.8898 15.7828 32.6184 15.6741 32.3181 15.6448ZM32.0175 17.218C32.012 17.2625 32.0034 17.3164 31.9885 17.3813L29.1031 32.1671C29.0742 32.2085 29.0207 32.2778 28.9566 32.3044C28.8793 32.3349 28.7687 32.3097 28.6819 32.2784L24.0295 28.7094L21.2387 31.2592L21.8277 27.5116C21.8277 27.5116 29.0592 20.771 29.3701 20.4803C29.6811 20.1905 29.5776 20.1279 29.5776 20.1279C29.5987 19.7755 29.1077 20.0272 29.1077 20.0272L19.5938 25.9186L19.5892 25.9018L15.0421 24.3713C15.0351 24.3682 15.027 24.3653 15.0192 24.3622C15.0442 24.3512 15.0697 24.341 15.0955 24.3317C20.7166 21.9614 31.4611 17.4329 31.9275 17.2485C31.9595 17.2353 31.9902 17.2258 32.0175 17.218ZM9.37805 28.9337C9.27714 28.9227 9.17162 28.9311 9.0683 28.9627L7.57141 29.4113C7.15813 29.5355 6.9246 29.97 7.04803 30.3833C7.1496 30.7224 7.459 30.9418 7.79572 30.9418C7.86915 30.9418 7.94502 30.9309 8.02002 30.9082L9.51691 30.4596C9.93019 30.3354 10.1652 29.8986 10.0418 29.4861C9.94923 29.1767 9.6808 28.9667 9.37805 28.9337ZM10.8032 32.6263C10.7029 32.6404 10.604 32.6746 10.5118 32.7301L9.17053 33.5327C8.79944 33.7546 8.67936 34.2336 8.90045 34.6039C9.04655 34.8484 9.30543 34.9838 9.57184 34.9838C9.70856 34.9838 9.84662 34.9497 9.97162 34.874L11.3129 34.0714C11.684 33.8495 11.804 33.3705 11.5829 33.0002C11.4165 32.7224 11.1043 32.5842 10.8032 32.6263ZM13.3865 35.8063C13.1867 35.8059 12.9869 35.8809 12.8342 36.0336L11.7279 37.1384C11.4217 37.4431 11.4217 37.9376 11.7264 38.2431C11.8787 38.3962 12.0795 38.472 12.2803 38.472C12.4803 38.472 12.6788 38.3962 12.8311 38.2446L13.9374 37.1399C14.2436 36.8352 14.2436 36.3422 13.9389 36.0367C13.7862 35.8839 13.5863 35.8067 13.3865 35.8063ZM16.6748 38.295C16.3733 38.252 16.0615 38.388 15.8951 38.6658L15.0909 40.0055C14.8691 40.3758 14.9877 40.8548 15.358 41.0767C15.4838 41.1524 15.6233 41.1896 15.7608 41.1896C16.0264 41.1896 16.2846 41.0534 16.4307 40.8096L17.2348 39.4714C17.4567 39.1011 17.3381 38.6206 16.9678 38.3987C16.8752 38.3431 16.7753 38.3093 16.6748 38.295ZM20.1691 39.92C19.8662 39.9527 19.5985 40.1615 19.5053 40.4709L19.0536 41.9662C18.9286 42.3795 19.163 42.8163 19.5755 42.9413C19.6513 42.9639 19.7263 42.9749 19.8013 42.9749C20.1365 42.9749 20.4474 42.7569 20.549 42.4194L21.0007 40.9225C21.1257 40.5093 20.8913 40.074 20.4788 39.949C20.3753 39.918 20.27 39.9092 20.1691 39.92Z" fill="black"/>
</svg>
